<?xml version="1.0" encoding="utf-8"?>
<!-- Generator: Adobe Illustrator 25.3.1, SVG Export Plug-In . SVG Version: 6.00 Build 0)  -->
<svg version="1.1" id="Layer_1" xmlns="http://www.w3.org/2000/svg" xmlns:xlink="http://www.w3.org/1999/xlink" x="0px" y="0px"
	 viewBox="0 0 500 500" style="enable-background:new 0 0 500 500;" xml:space="preserve">
<style type="text/css">
	.st0{fill:url(#SVGID_1_);}
	.st1{fill:url(#SVGID_2_);}
	.st2{fill:url(#SVGID_3_);}
	.st3{fill:url(#SVGID_4_);}
	.st4{fill:#1A69FF;}
	.st5{opacity:0.8;}
	.st6{fill:url(#SVGID_5_);}
	.st7{opacity:0.5;fill:url(#SVGID_6_);}
	.st8{fill:url(#SVGID_7_);}
	.st9{opacity:0.5;fill:url(#SVGID_8_);}
	.st10{fill:url(#SVGID_9_);}
	.st11{fill:url(#SVGID_10_);}
	.st12{fill:url(#SVGID_11_);}
	.st13{fill:url(#SVGID_12_);}
	.st14{fill:url(#SVGID_13_);}
	.st15{fill:url(#SVGID_14_);}
</style>
<g>
	<linearGradient id="SVGID_1_" gradientUnits="userSpaceOnUse" x1="36.129" y1="302.2581" x2="463.871" y2="302.2581">
		<stop  offset="0" style="stop-color:#1A69FF"/>
		<stop  offset="0.597" style="stop-color:#1AC1FF"/>
		<stop  offset="1" style="stop-color:#1AFFFF"/>
	</linearGradient>
	<path class="st0" d="M463.87,337.1v85.16c0,37.41-29.15,67.74-65.09,67.74c-17.96,0-34.26-7.59-46.03-19.84
		c-11.77-12.25-19.06-29.21-19.06-47.9V337.1c0-28.01-12.75-52.95-32.57-68.9c-7.1-5.73-15.1-10.3-23.77-13.41
		c-8.57-3.1-17.77-4.78-27.35-4.78h-0.08c-7.08,0.02-13.95,0.93-20.54,2.67c-3.72,0.99-7.32,2.23-10.84,3.72
		c-30.6,12.97-52.24,44.26-52.24,80.71v85.16c0,37.41-29.15,67.74-65.09,67.74c-17.96,0-34.26-7.59-46.03-19.84
		c-11.77-12.25-19.06-29.21-19.06-47.9V337.1c0-27.29,4.74-53.46,13.45-77.65c0.85-2.48,1.78-4.9,2.75-7.32
		c0.27-0.72,0.58-1.41,0.85-2.13c0.12-0.27,0.23-0.56,0.35-0.83c15.33-36.93,39.99-68.73,70.88-92.11
		c12.95-9.83,27-18.17,41.9-24.79c1.34-0.6,2.67-1.16,4.03-1.74c2.88-1.2,5.79-2.34,8.73-3.41c22.22-8.17,46.08-12.6,70.94-12.6
		c29.69,0,57.97,6.33,83.69,17.75c3.1,1.37,6.17,2.85,9.21,4.37c6.85,3.45,13.51,7.28,19.94,11.46
		c32.79,21.25,59.65,51.5,77.42,87.41c2.36,4.72,4.53,9.56,6.56,14.5c1.72,4.24,3.35,8.55,4.82,12.93c0.79,2.34,1.55,4.68,2.26,7.06
		c2.4,7.78,4.37,15.75,5.9,23.9c1.51,7.95,2.61,16.08,3.29,24.31C463.62,324.42,463.87,330.73,463.87,337.1z"/>
	<linearGradient id="SVGID_2_" gradientUnits="userSpaceOnUse" x1="124.4064" y1="148.2225" x2="166.3484" y2="148.2225">
		<stop  offset="0" style="stop-color:#1AEDE8"/>
		<stop  offset="1" style="stop-color:#1AD3FF"/>
	</linearGradient>
	<path class="st1" d="M166.31,161.35c0,0.95,0.02,1.9,0.04,2.83c-14.19-3.31-28.2-5.67-41.94-7.12c12.95-9.83,27-18.17,41.9-24.79
		V161.35z"/>
	<linearGradient id="SVGID_3_" gradientUnits="userSpaceOnUse" x1="386.3412" y1="272.8686" x2="361.1704" y2="301.0295">
		<stop  offset="0" style="stop-color:#00D3FF"/>
		<stop  offset="0.7191" style="stop-color:#00FFFF"/>
	</linearGradient>
	<path class="st2" d="M463.87,337.1v48.54c-14.98-25.37-33.35-50.3-54.87-74.05c-17.36-19.12-36.74-37.45-58.05-54.62
		c-14.07-11.34-28.47-21.75-43.08-31.22c15.91-15.85,25.82-38.17,25.82-62.85v-30.64c3.1,1.37,6.17,2.85,9.21,4.37
		c6.85,3.45,13.51,7.28,19.94,11.46c32.79,21.25,59.65,51.5,77.42,87.41c2.36,4.72,4.53,9.56,6.56,14.5
		c1.72,4.24,3.35,8.55,4.82,12.93c0.79,2.34,1.55,4.68,2.26,7.06c2.4,7.78,4.37,15.75,5.9,23.9c1.51,7.95,2.61,16.08,3.29,24.31
		C463.62,324.42,463.87,330.73,463.87,337.1z"/>
	<linearGradient id="SVGID_4_" gradientUnits="userSpaceOnUse" x1="121.9098" y1="246.5838" x2="463.871" y2="246.5838">
		<stop  offset="0" style="stop-color:#1AEDE8"/>
		<stop  offset="1" style="stop-color:#1AEBFF"/>
	</linearGradient>
	<path class="st3" d="M463.87,337.1v41.55c-11.26-22.61-25.68-45.06-43.05-66.6c-1.97-2.48-4.01-4.94-6.08-7.39
		c-17.32-20.55-37.35-40.22-59.86-58.35c-75.21-60.62-161.26-90.52-232.97-87.35c13.63-10.65,28.53-19.65,44.4-26.69
		c1.34-0.6,2.67-1.16,4.03-1.74c2.88-1.2,5.79-2.34,8.73-3.41c22.22-8.17,46.08-12.6,70.94-12.6c29.69,0,57.97,6.33,83.69,17.75
		c3.1,1.37,6.17,2.85,9.21,4.37c6.85,3.45,13.51,7.28,19.94,11.46c32.79,21.25,59.65,51.5,77.42,87.41
		c2.36,4.72,4.53,9.56,6.56,14.5c1.08,2.63,2.11,5.3,3.08,8.01c1.45,3.93,2.79,7.94,4.01,11.98c2.4,7.78,4.37,15.75,5.9,23.9
		c1.51,7.95,2.61,16.08,3.29,24.31C463.62,324.42,463.87,330.73,463.87,337.1z"/>
	<path class="st4" d="M463.87,77.74v85.16c0,3.25-0.06,6.5-0.21,9.74c-0.89,21.91-4.86,43.01-11.46,62.85
		c-1.64,4.92-3.43,9.77-5.38,14.52c-9.33,22.7-22.16,43.49-37.82,61.59c-20.73,24-46.39,43.3-75.31,56.15
		c-26.07,11.59-54.81,17.92-84.93,17.75c-23.81-0.14-46.65-4.37-67.95-12.08c-4.92-1.78-9.75-3.74-14.5-5.86
		c-47.71-21.41-86.4-60.56-108.85-109.3c-1.24-2.69-2.44-5.42-3.56-8.19c-0.14-0.29-0.25-0.6-0.37-0.89c-1.55-3.77-3-7.61-4.34-11.5
		c-0.74-2.09-1.43-4.2-2.11-6.31c-1.61-5.03-3.04-10.14-4.28-15.31c-0.6-2.36-1.14-4.74-1.65-7.14
		c-3.31-15.64-5.03-31.86-5.03-48.46v-82.7C36.13,40.33,65.28,10,101.22,10c0.33,0,0.68,0,0.99,0.02c1.37,0.02,2.73,0.08,4.06,0.19
		c15.95,1.28,30.31,8.54,40.97,19.63c6.12,6.37,11.03,14.01,14.34,22.51c0.04,0.1,0.08,0.19,0.1,0.29c0.75,1.99,1.43,4.01,2.01,6.08
		c0.56,1.95,1.03,3.97,1.39,6c0.81,4.22,1.22,8.57,1.22,13.03v83.61c0,0.95,0.02,1.9,0.04,2.83c0.62,20.21,7.84,38.92,19.43,53.69
		c14.48,18.35,35.75,30.58,59.65,31.99c1.49,0.1,2.98,0.14,4.49,0.14H250c0.5,0,0.97,0,1.45-0.02c4.1-0.08,8.13-0.46,12.08-1.12
		c17.07-2.9,32.4-11.19,44.34-23.11c15.91-15.85,25.82-38.17,25.82-62.85V77.74c0-37.41,29.15-67.74,65.09-67.74
		c1.9,0,3.77,0.08,5.61,0.25c15.74,1.39,29.88,8.63,40.41,19.59C456.57,42.09,463.87,59.05,463.87,77.74z"/>
	<g class="st5">
		<linearGradient id="SVGID_5_" gradientUnits="userSpaceOnUse" x1="333.6903" y1="316.3096" x2="449.8968" y2="316.3096">
			<stop  offset="0" style="stop-color:#00A8FF"/>
			<stop  offset="1" style="stop-color:#00CDFF"/>
		</linearGradient>
		<path class="st6" d="M449.9,258.01c-7.9,19.84-17.73,37.97-29.07,54.04c-21.52,30.58-48.48,53.65-77.92,66.74
			c-3.04,1.35-6.12,2.63-9.21,3.83v-14.88c31.65-14.05,59.4-35.85,81.06-63.08c13.08-16.41,23.92-34.8,32.07-54.66
			C447.9,252.63,448.93,255.3,449.9,258.01z"/>
	</g>
	<g>
		<path class="st4" d="M101.22,10c0.33,0,0.68,0,0.99,0.02c-36.6,0.56-66.08,31.59-66.08,69.81v-2.09
			C36.13,40.33,65.28,10,101.22,10z"/>
	</g>
	<linearGradient id="SVGID_6_" gradientUnits="userSpaceOnUse" x1="200.2632" y1="134.4004" x2="476.9618" y2="134.4004">
		<stop  offset="0" style="stop-color:#1A69FF"/>
		<stop  offset="0.951" style="stop-color:#1A11B3"/>
		<stop  offset="1" style="stop-color:#1A0CAF"/>
	</linearGradient>
	<path class="st7" d="M463.87,77.74v85.16c0,11.17-0.79,22.18-2.34,32.9c-66.91,55.43-147.58,76.59-211.94,54.19H250
		c0.5,0,0.97,0,1.45-0.02c0.93-0.02,1.86-0.06,2.79-0.1c44.19-2.3,79.45-40.43,79.45-86.98V77.74c0-37.41,29.15-67.74,65.09-67.74
		c1.9,0,3.77,0.08,5.61,0.25c15.74,1.39,29.88,8.63,40.41,19.59c7.63,7.94,13.37,17.86,16.49,28.95
		C462.98,64.79,463.87,71.16,463.87,77.74z"/>
	<linearGradient id="SVGID_7_" gradientUnits="userSpaceOnUse" x1="339.3303" y1="228.5014" x2="442.4401" y2="15.969">
		<stop  offset="0" style="stop-color:#1A0CAF"/>
		<stop  offset="0.049" style="stop-color:#1A11B3"/>
		<stop  offset="1" style="stop-color:#1A69FF"/>
	</linearGradient>
	<path class="st8" d="M463.87,87.05v63.29c-60.97,65.59-137.94,102.54-209.92,99.62c0.1-0.02,0.19-0.06,0.29-0.08
		c44.19-2.3,79.45-40.43,79.45-86.98V77.74c0-37.41,29.15-67.74,65.09-67.74c1.9,0,3.77,0.08,5.61,0.25
		c15.74,1.39,29.88,8.63,40.41,19.59c7.63,7.94,13.37,17.86,16.49,28.95L463.87,87.05z"/>
	<linearGradient id="SVGID_8_" gradientUnits="userSpaceOnUse" x1="51.2646" y1="81.9675" x2="116.2007" y2="153.5588">
		<stop  offset="0" style="stop-color:#1A0CAF"/>
		<stop  offset="0.049" style="stop-color:#1A11B3;stop-opacity:0.951"/>
		<stop  offset="1" style="stop-color:#1A69FF;stop-opacity:0"/>
	</linearGradient>
	<path class="st9" d="M163.7,58.72c-57.81,28.35-101.92,96.06-114.5,178.95c-0.74-2.09-1.43-4.2-2.11-6.31
		c-1.61-5.03-3.04-10.14-4.28-15.31c-0.6-2.36-1.14-4.74-1.65-7.14c-3.31-15.64-5.03-31.86-5.03-48.46v-82.7
		C36.13,40.33,65.28,10,101.22,10c0.33,0,0.68,0,0.99,0.02c1.37,0.02,2.73,0.08,4.06,0.19c15.95,1.28,30.31,8.54,40.97,19.63
		c6.12,6.37,11.03,14.01,14.34,22.51c0.04,0.1,0.08,0.19,0.1,0.29C162.44,54.63,163.12,56.65,163.7,58.72z"/>
	<linearGradient id="SVGID_9_" gradientUnits="userSpaceOnUse" x1="36.129" y1="106.3581" x2="161.316" y2="106.3581">
		<stop  offset="0" style="stop-color:#1A69FF"/>
		<stop  offset="0.951" style="stop-color:#1A11B3"/>
		<stop  offset="1" style="stop-color:#1A0CAF"/>
	</linearGradient>
	<path class="st10" d="M161.32,51.69c-56.32-1.53-109.26,60.33-120.43,143.03c-0.37,2.67-0.68,5.34-0.95,7.99
		c-2.52-13.72-3.81-27.85-3.81-42.27v-82.7C36.13,40.33,65.28,10,101.22,10c0.33,0,0.68,0,0.99,0.02
		c17.57,0.27,33.48,7.8,45.04,19.82C153.21,36.03,158.03,43.45,161.32,51.69z"/>
	<linearGradient id="SVGID_10_" gradientUnits="userSpaceOnUse" x1="57.4603" y1="243.9599" x2="333.1678" y2="243.9599">
		<stop  offset="0" style="stop-color:#1A69FF"/>
		<stop  offset="0.951" style="stop-color:#1A11B3"/>
		<stop  offset="1" style="stop-color:#1A0CAF"/>
	</linearGradient>
	<path class="st11" d="M248.92,114.52c29.87-0.15,58.36,6.1,84.25,17.52l-82.07,116.4c-1.92,0.41-3.81,0.89-5.67,1.43
		c-0.35,0.1-0.71,0.21-1.06,0.33c-36.34,11.07-63.03,45.48-63.31,86.28l-0.26,36.93c-4.91-1.78-9.75-3.74-14.49-5.86
		c-47.7-21.41-86.4-60.56-108.85-109.3c17.84-49.57,51.44-91.37,94.57-118.68c4.65-2.94,9.41-5.73,14.28-8.32v1.24
		C191.66,121.06,219.57,114.67,248.92,114.52z"/>
	<linearGradient id="SVGID_11_" gradientUnits="userSpaceOnUse" x1="36.129" y1="302.2567" x2="333.6903" y2="302.2567">
		<stop  offset="0" style="stop-color:#00AFFF"/>
		<stop  offset="1" style="stop-color:#1AFFFF"/>
	</linearGradient>
	<path class="st12" d="M333.69,133.81v29.09c0,21.68-7.65,41.52-20.26,56.77c-15.08,18.19-37.24,29.86-61.97,30.31
		C250.97,250,250.5,250,250,250h-0.08c-1.86,0-3.72,0.06-5.55,0.19c-43.53,3.02-78.06,40.86-78.06,86.9v85.16
		c0,3.97-0.33,7.88-0.95,11.65c-0.97,5.79-2.63,11.3-4.92,16.49c-9.62,21.87-30.08,37.51-54.25,39.41
		c-1.65,0.14-3.29,0.19-4.97,0.19c-17.96,0-34.26-7.59-46.03-19.84c-11.77-12.25-19.06-29.21-19.06-47.9v-82.59
		c0-16.59,1.72-32.81,5.03-48.41c1.37-6.58,3.02-13.05,4.95-19.39c2.23-7.45,4.82-14.73,7.78-21.81
		c14.9-36.06,38.57-67.34,68.23-90.72c9.39-7.43,19.39-14.05,29.9-19.78c4.65-2.54,9.41-4.92,14.28-7.08
		c25.35-11.42,53.26-17.81,82.61-17.96c29.86-0.15,58.36,6.1,84.25,17.52L333.69,133.81z"/>
	<linearGradient id="SVGID_12_" gradientUnits="userSpaceOnUse" x1="62.9193" y1="410.7254" x2="107.7053" y2="358.1681">
		<stop  offset="0" style="stop-color:#00A6FF"/>
		<stop  offset="1" style="stop-color:#00AFFF;stop-opacity:0"/>
	</linearGradient>
	<path class="st13" d="M165.36,433.91c-0.97,5.79-2.63,11.3-4.92,16.49c-9.62,21.87-30.08,37.51-54.25,39.41
		c-18.68-1.37-35.52-9.83-47.96-22.8c-13.65-14.21-22.1-33.85-22.1-55.51v-71.83c0-16.59,1.72-32.81,5.03-48.41
		c1.37-6.58,3.02-13.05,4.95-19.39c6.97,19.32,15.87,38.55,26.73,57.37C97.85,372.55,130.06,408.05,165.36,433.91z"/>
	<linearGradient id="SVGID_13_" gradientUnits="userSpaceOnUse" x1="30.3942" y1="445.3811" x2="111.5199" y2="364.2554">
		<stop  offset="0" style="stop-color:#1AEDE8"/>
		<stop  offset="1" style="stop-color:#1AEBFF"/>
	</linearGradient>
	<path class="st14" d="M157.76,455.86c-11.23,20.4-32.34,34.14-56.54,34.14c-17.96,0-34.26-7.59-46.03-19.84
		c-11.77-12.25-19.06-29.21-19.06-47.9v-82.59c0-15.83,1.59-31.3,4.57-46.24c4.55,24.97,13.8,50.57,27.97,75.12
		C91.7,408.44,123.67,438.54,157.76,455.86z"/>
	<linearGradient id="SVGID_14_" gradientUnits="userSpaceOnUse" x1="122.1225" y1="167.0921" x2="333.6903" y2="167.0921">
		<stop  offset="0" style="stop-color:#1AEDE8"/>
		<stop  offset="1" style="stop-color:#1AEBFF"/>
	</linearGradient>
	<path class="st15" d="M333.69,133.81v29.09c0,21.68-7.65,41.52-20.26,56.77c-58.49-45.52-129.31-66.23-191.3-60.33
		c9.39-7.43,19.39-14.05,29.9-19.78c4.65-2.54,9.41-4.92,14.28-7.08c25.35-11.42,53.26-17.81,82.61-17.96
		c29.86-0.15,58.36,6.1,84.25,17.52L333.69,133.81z"/>
</g>
</svg>
